<svg width="479" height="307" viewBox="0 0 479 307" fill="none" xmlns="http://www.w3.org/2000/svg">
<path d="M439.875 0.0620117H38.25C17.212 0.0620117 0 17.275 0 38.312V267.812C0 288.849 17.212 306.062 38.25 306.062H439.875C460.912 306.062 478.125 288.849 478.125 267.812V38.312C478.125 17.275 460.912 0.0620117 439.875 0.0620117ZM430.312 19.188L239.062 185.576L47.812 19.188H430.312ZM24.862 281.2C21.037 277.375 19.125 273.55 19.125 267.812V38.312C19.125 32.575 21.038 28.75 24.862 24.924L172.125 153.062L24.862 281.2ZM47.812 286.938L187.425 166.45L239.063 210.437L290.7 166.45L430.312 286.937H47.812V286.938ZM459 267.812C459 273.549 457.088 277.374 453.263 281.2L306 153.062L453.263 24.924C457.088 28.749 459 32.574 459 38.312V267.812V267.812Z" fill="white"/>
</svg>
