<svg width="88" height="88" viewBox="0 0 88 88" fill="none" xmlns="http://www.w3.org/2000/svg">
<path fill-rule="evenodd" clip-rule="evenodd" d="M87.9994 43.9997C87.9994 68.3001 68.3001 87.9995 43.9997 87.9995C19.6993 87.9995 0 68.3001 0 43.9997C0 19.6993 19.6993 0 43.9997 0C68.3001 0 87.9994 19.6993 87.9994 43.9997ZM53.2891 25.4528C50.8829 25.3436 50.1562 25.3202 44.0549 25.3202C37.9531 25.3202 37.2303 25.3436 34.8202 25.4528C32.5939 25.5541 31.3828 25.9275 30.5781 26.2399C29.5117 26.6542 28.7496 27.1505 27.9489 27.9489C27.1482 28.7502 26.6559 29.5099 26.2416 30.5781C25.9292 31.3834 25.5541 32.5939 25.4529 34.8224C25.3436 37.2309 25.3203 37.9536 25.3203 44.0572C25.3203 50.1568 25.3436 50.8835 25.4529 53.2896C25.5541 55.5165 25.9292 56.7275 26.2416 57.5317C26.6559 58.6022 27.1482 59.3602 27.9489 60.1649C28.7502 60.9616 29.5117 61.4573 30.5781 61.8716C31.3828 62.1846 32.5939 62.5551 34.8202 62.657C37.2303 62.7662 37.9531 62.7896 44.0549 62.7896C50.1562 62.7896 50.8829 62.7662 53.2891 62.657C55.516 62.5551 56.727 62.1846 57.5311 61.8716C58.6016 61.4539 59.3596 60.9616 60.1643 60.1649C60.9611 59.3602 61.4568 58.6022 61.8711 57.5317C62.1841 56.7275 62.5545 55.5165 62.6564 53.2896C62.7657 50.8835 62.789 50.1568 62.789 44.0572C62.789 37.953 62.7657 37.2309 62.6564 34.8224C62.5545 32.5939 62.1841 31.3828 61.8711 30.5781C61.4568 29.5094 60.9611 28.7496 60.1643 27.9489C59.3596 27.1505 58.6016 26.6542 57.5311 26.2399C56.727 25.9275 55.516 25.5541 53.2891 25.4528ZM34.6329 21.3394C37.0704 21.2284 37.8517 21.2028 44.0549 21.2028C50.2615 21.2028 51.0394 21.2284 53.4769 21.3394C55.9103 21.451 57.5704 21.8374 59.0233 22.4019C60.5269 22.9858 61.8045 23.7672 63.0701 25.0385C64.3438 26.3082 65.1252 27.5835 65.7113 29.0854C66.2736 30.5406 66.66 32.2006 66.7733 34.6341C66.8825 37.0715 66.9059 37.8489 66.9059 44.056C66.9059 50.2649 66.8825 51.0388 66.7733 53.4763C66.66 55.9138 66.2736 57.5698 65.7113 59.0227C65.1246 60.5302 64.3432 61.8045 63.0701 63.0735C61.8051 64.3432 60.5274 65.1246 59.0233 65.7108C57.5704 66.273 55.9103 66.66 53.4769 66.7727C51.0389 66.882 50.2615 66.9092 44.0549 66.9092C37.8517 66.9092 37.0704 66.882 34.6329 66.7727C32.2035 66.66 30.5389 66.273 29.086 65.7108C27.5858 65.1246 26.3082 64.3427 25.0391 63.0735C23.7661 61.8045 22.9847 60.5302 22.4025 59.0227C21.8362 57.5698 21.4532 55.9098 21.34 53.4763C21.2273 51.0388 21.2034 50.2649 21.2034 44.056C21.2034 37.8489 21.2267 37.0715 21.34 34.6341C21.4532 32.2006 21.8362 30.5406 22.4025 29.0854C22.9847 27.5835 23.7655 26.3076 25.0391 25.0385C26.3088 23.7672 27.5858 22.9858 29.086 22.4019C30.5389 21.8374 32.2029 21.451 34.6329 21.3394ZM32.3201 44.0566C32.3201 37.574 37.574 32.3201 44.0549 32.3201C50.5392 32.3201 55.7891 37.5746 55.7891 44.0566C55.7891 50.5386 50.5392 55.7891 44.0549 55.7891C37.574 55.7891 32.3201 50.5392 32.3201 44.0566ZM36.4376 44.0566C36.4376 48.2657 39.8476 51.6717 44.0549 51.6717C48.2657 51.6717 51.6717 48.2657 51.6717 44.0566C51.6717 39.8476 48.2651 36.4375 44.0549 36.4375C39.8476 36.4375 36.4376 39.8476 36.4376 44.0566ZM56.2541 29.1155C57.7696 29.1155 58.996 30.3419 58.996 31.8575C58.996 33.3712 57.7696 34.5994 56.2541 34.5994C54.7426 34.5994 53.5121 33.3712 53.5121 31.8575C53.5121 30.3419 54.7426 29.1155 56.2541 29.1155Z" fill="#FF5858"/>
</svg>
