<svg width="88" height="88" viewBox="0 0 88 88" fill="none" xmlns="http://www.w3.org/2000/svg">
<path fill-rule="evenodd" clip-rule="evenodd" d="M87.9998 44V44.13C87.9741 52.8213 85.375 61.3102 80.5303 68.526C75.6857 75.7418 68.8126 81.3612 60.7779 84.6754C52.7433 87.9895 43.9072 88.8499 35.3841 87.148C26.8611 85.4461 19.033 81.2582 12.8873 75.1125C6.74165 68.9668 2.55372 61.1387 0.851829 52.6157C-0.850063 44.0927 0.0103235 35.2565 3.32445 27.2219C6.63858 19.1873 12.258 12.3141 19.4738 7.46948C26.6896 2.62484 35.1786 0.0257168 43.8698 0H43.9998C45.0598 0 46.1098 0 47.1598 0.12C48.8784 0.240302 50.5882 0.464041 52.2798 0.79C55.0504 1.31492 57.7633 2.10867 60.3798 3.16C65.8708 5.3682 70.8615 8.65833 75.055 12.8347C79.2485 17.011 82.5591 21.9881 84.7898 27.47C85.8715 30.1292 86.6855 32.8894 87.2198 35.71C87.5451 37.4186 87.7689 39.1449 87.8898 40.88C87.9998 41.92 87.9998 43 87.9998 44ZM43.8698 42.68C42.0344 42.68 40.2402 42.1357 38.7141 41.116C37.188 40.0963 35.9986 38.647 35.2962 36.9513C34.5938 35.2556 34.4101 33.3897 34.7681 31.5896C35.1262 29.7894 36.01 28.1359 37.3079 26.838C38.6057 25.5402 40.2592 24.6564 42.0594 24.2983C43.8595 23.9402 45.7254 24.124 47.4211 24.8264C49.1168 25.5288 50.5662 26.7182 51.5859 28.2443C52.6056 29.7704 53.1498 31.5646 53.1498 33.4C53.1472 35.8604 52.1686 38.2193 50.4289 39.959C48.6891 41.6988 46.3302 42.6774 43.8698 42.68ZM43.8698 28.62C42.9244 28.62 42.0003 28.9003 41.2142 29.4256C40.4281 29.9508 39.8155 30.6973 39.4537 31.5708C39.0919 32.4442 38.9972 33.4053 39.1817 34.3325C39.3661 35.2598 39.8214 36.1115 40.4899 36.78C41.1584 37.4485 42.0101 37.9037 42.9373 38.0882C43.8645 38.2726 44.8256 38.1779 45.6991 37.8161C46.5725 37.4544 47.319 36.8417 47.8443 36.0556C48.3695 35.2696 48.6498 34.3454 48.6498 33.4C48.6472 32.1331 48.1427 30.9188 47.2469 30.0229C46.351 29.1271 45.1367 28.6226 43.8698 28.62ZM55.8528 44.2302C56.127 44.4397 56.357 44.7013 56.5298 45C56.7075 45.2979 56.823 45.6287 56.8694 45.9724C56.9158 46.3161 56.8921 46.6657 56.7998 47C56.6287 47.6581 56.2094 48.2244 55.6298 48.58C53.8172 49.6662 51.8798 50.5292 49.8598 51.15C49.1753 51.3371 48.5066 51.5779 47.8598 51.87L47.5898 52L53.9098 59.68C54.3587 60.2079 54.581 60.8916 54.5286 61.5826C54.4762 62.2735 54.1532 62.9159 53.6298 63.37C53.118 63.7699 52.4707 63.9548 51.8249 63.8858C51.1791 63.8167 50.5855 63.499 50.1698 63L43.8698 55.4L37.5798 63C37.3541 63.2872 37.0681 63.5213 36.7421 63.6861C36.4161 63.8508 36.0579 63.9421 35.6928 63.9536C35.3277 63.965 34.9646 63.8963 34.6289 63.7523C34.2932 63.6083 33.9931 63.3925 33.7498 63.12C33.326 62.6454 33.0918 62.0313 33.0918 61.395C33.0918 60.7587 33.326 60.1446 33.7498 59.67L40.0198 52.09L39.1598 51.66C38.4741 51.329 37.7696 51.0385 37.0498 50.79C35.4386 50.2142 33.8796 49.5016 32.3898 48.66C31.824 48.3002 31.4169 47.7379 31.2519 47.0879C31.0868 46.438 31.1763 45.7496 31.5019 45.1634C31.8276 44.5772 32.3648 44.1376 33.0039 43.9343C33.6429 43.7311 34.3354 43.7796 34.9398 44.07C37.6537 45.738 40.756 46.6687 43.9398 46.77C47.1348 46.7205 50.2522 45.7783 52.9398 44.05C53.2377 43.8759 53.5671 43.7623 53.909 43.7158C54.2509 43.6693 54.5986 43.6908 54.9322 43.7791C55.2658 43.8674 55.5786 44.0207 55.8528 44.2302Z" fill="#FF5858"/>
</svg>
