<svg width="82" height="82" viewBox="0 0 82 82" fill="none" xmlns="http://www.w3.org/2000/svg">
<path fill-rule="evenodd" clip-rule="evenodd" d="M81.92 40.96C81.92 63.5816 63.5816 81.92 40.96 81.92C18.3384 81.92 0 63.5816 0 40.96C0 18.3384 18.3384 0 40.96 0C63.5816 0 81.92 18.3384 81.92 40.96ZM34.736 33.952V27.488C34.736 27.4641 34.7359 27.4374 34.7358 27.4081C34.7306 25.9876 34.7027 18.3997 44.72 18.384H51.92V26.608H46.624C45.568 26.608 44.512 27.696 44.512 28.496V33.904H51.904C51.6 38.048 50.992 41.84 50.992 41.84H44.464V63.52H34.736V41.856H30V33.952H34.736Z" fill="#FF5858"/>
</svg>
