<svg width="82" height="82" viewBox="0 0 82 82" fill="none" xmlns="http://www.w3.org/2000/svg">
<path d="M40.6208 0C18.1861 0 0 18.1861 0 40.6208C0 63.0555 18.1861 81.2416 40.6208 81.2416C63.0555 81.2416 81.2416 63.0555 81.2416 40.6208C81.2416 18.1861 63.0555 0 40.6208 0ZM62.4518 56.0358C60.7182 57.1199 53.6738 57.4429 51.9684 56.2038C51.033 55.5245 50.1776 54.6744 49.3654 53.8648C48.7969 53.299 48.1518 53.0244 47.6634 52.4102C47.2648 51.9077 46.9911 51.3146 46.5714 50.8182C45.863 49.9858 44.7726 49.2774 43.9102 50.2946C42.6114 51.825 44.1144 54.8302 42.3826 55.9733C41.8018 56.357 41.2157 56.4678 40.4897 56.4133L38.8819 56.4863C37.9377 56.5048 36.4417 56.5136 35.3672 56.32C34.1686 56.1035 33.1786 55.4488 32.0945 54.9683C30.037 54.0558 28.0773 52.8123 26.5857 51.0902C22.5262 46.3998 17.0738 39.9494 14.9556 34.0525C14.52 32.8407 13.369 30.441 14.4602 29.4017C15.9438 28.3237 23.2258 28.0201 24.3619 29.6868C24.823 30.3644 25.1143 31.3553 25.4408 32.1235C25.8474 33.081 26.0674 33.983 26.7027 34.8304C27.265 35.5819 27.6795 36.3378 28.1142 37.1615C28.6026 38.0864 29.0638 38.9734 29.6578 39.8244C30.0608 40.4034 31.1265 41.5554 31.7997 41.6407C33.4435 41.851 33.3414 37.8567 33.2191 36.8817C33.1021 35.9418 33.0722 34.9448 33.103 33.9918C33.1294 33.1786 33.2024 32.0329 32.721 31.3694C31.9361 30.287 30.1875 31.0966 30.0511 29.6419C30.3398 29.2292 30.279 28.8631 32.2071 28.2278C33.726 27.7288 34.7072 27.7446 35.7086 27.8247C37.7502 27.9884 39.915 27.4358 41.8862 28.0975C43.7694 28.732 43.4782 31.4081 43.4148 33.0114C43.3294 35.2 43.421 37.3366 43.4148 39.5586C43.4122 40.5698 43.3717 41.5545 44.6054 41.4718C45.7618 41.3952 45.8797 40.4219 46.4314 39.6194C47.1988 38.5 47.9037 37.3648 48.6851 36.2498C49.7385 34.7424 50.057 33.0484 51.0488 31.504C51.4034 30.9522 51.7088 29.7766 52.2553 29.3401C52.6689 29.0083 53.4547 29.1817 53.9554 29.1817H55.1461C56.0569 29.1817 56.9862 29.1746 57.9225 29.2072C59.2706 29.2538 60.7807 28.9441 62.1174 29.1333C67.8858 29.9473 54.8671 42.2787 55.5447 44.4805C56.0129 46.0011 58.9829 47.7004 60.0547 48.9456C61.4777 50.6044 65.8583 53.9018 62.4518 56.0358Z" fill="#FF5858"/>
</svg>
