<svg width="191" height="28" viewBox="0 0 191 28" fill="none" xmlns="http://www.w3.org/2000/svg">
<path d="M17.044 27L12.184 19.98H11.896H6.82V27H0.988V1.8H11.896C14.128 1.8 16.06 2.172 17.692 2.916C19.348 3.66 20.62 4.716 21.508 6.084C22.396 7.452 22.84 9.072 22.84 10.944C22.84 12.816 22.384 14.436 21.472 15.804C20.584 17.148 19.312 18.18 17.656 18.9L23.308 27H17.044ZM16.936 10.944C16.936 9.528 16.48 8.448 15.568 7.704C14.656 6.936 13.324 6.552 11.572 6.552H6.82V15.336H11.572C13.324 15.336 14.656 14.952 15.568 14.184C16.48 13.416 16.936 12.336 16.936 10.944ZM46.0367 17.388C46.0367 17.46 46.0007 17.964 45.9287 18.9H31.2767C31.5407 20.1 32.1647 21.048 33.1487 21.744C34.1327 22.44 35.3567 22.788 36.8207 22.788C37.8287 22.788 38.7167 22.644 39.4847 22.356C40.2767 22.044 41.0087 21.564 41.6807 20.916L44.6687 24.156C42.8447 26.244 40.1807 27.288 36.6767 27.288C34.4927 27.288 32.5607 26.868 30.8807 26.028C29.2007 25.164 27.9047 23.976 26.9927 22.464C26.0807 20.952 25.6247 19.236 25.6247 17.316C25.6247 15.42 26.0687 13.716 26.9567 12.204C27.8687 10.668 29.1047 9.48 30.6647 8.64C32.2487 7.776 34.0127 7.344 35.9567 7.344C37.8527 7.344 39.5687 7.752 41.1047 8.568C42.6407 9.384 43.8407 10.56 44.7047 12.096C45.5927 13.608 46.0367 15.372 46.0367 17.388ZM35.9927 11.592C34.7207 11.592 33.6527 11.952 32.7887 12.672C31.9247 13.392 31.3967 14.376 31.2047 15.624H40.7447C40.5527 14.4 40.0247 13.428 39.1607 12.708C38.2967 11.964 37.2407 11.592 35.9927 11.592ZM68.7476 17.388C68.7476 17.46 68.7116 17.964 68.6396 18.9H53.9876C54.2516 20.1 54.8756 21.048 55.8596 21.744C56.8436 22.44 58.0676 22.788 59.5316 22.788C60.5396 22.788 61.4276 22.644 62.1956 22.356C62.9876 22.044 63.7196 21.564 64.3916 20.916L67.3796 24.156C65.5556 26.244 62.8916 27.288 59.3876 27.288C57.2036 27.288 55.2716 26.868 53.5916 26.028C51.9116 25.164 50.6156 23.976 49.7036 22.464C48.7916 20.952 48.3356 19.236 48.3356 17.316C48.3356 15.42 48.7796 13.716 49.6676 12.204C50.5796 10.668 51.8156 9.48 53.3756 8.64C54.9596 7.776 56.7236 7.344 58.6676 7.344C60.5636 7.344 62.2796 7.752 63.8156 8.568C65.3516 9.384 66.5516 10.56 67.4156 12.096C68.3036 13.608 68.7476 15.372 68.7476 17.388ZM58.7036 11.592C57.4316 11.592 56.3636 11.952 55.4996 12.672C54.6356 13.392 54.1076 14.376 53.9156 15.624H63.4556C63.2636 14.4 62.7356 13.428 61.8716 12.708C61.0076 11.964 59.9516 11.592 58.7036 11.592ZM92.2145 0.287998V27H86.8505V24.768C85.4585 26.448 83.4425 27.288 80.8025 27.288C78.9785 27.288 77.3225 26.88 75.8345 26.064C74.3705 25.248 73.2185 24.084 72.3785 22.572C71.5385 21.06 71.1185 19.308 71.1185 17.316C71.1185 15.324 71.5385 13.572 72.3785 12.06C73.2185 10.548 74.3705 9.384 75.8345 8.568C77.3225 7.752 78.9785 7.344 80.8025 7.344C83.2745 7.344 85.2065 8.124 86.5985 9.684V0.287998H92.2145ZM81.7745 22.68C83.1905 22.68 84.3665 22.2 85.3025 21.24C86.2385 20.256 86.7065 18.948 86.7065 17.316C86.7065 15.684 86.2385 14.388 85.3025 13.428C84.3665 12.444 83.1905 11.952 81.7745 11.952C80.3345 11.952 79.1465 12.444 78.2105 13.428C77.2745 14.388 76.8065 15.684 76.8065 17.316C76.8065 18.948 77.2745 20.256 78.2105 21.24C79.1465 22.2 80.3345 22.68 81.7745 22.68Z" fill="#FF5858"/>
<path d="M108.86 7.344C110.66 7.344 112.292 7.764 113.756 8.604C115.244 9.42 116.408 10.584 117.248 12.096C118.088 13.584 118.508 15.324 118.508 17.316C118.508 19.308 118.088 21.06 117.248 22.572C116.408 24.06 115.244 25.224 113.756 26.064C112.292 26.88 110.66 27.288 108.86 27.288C106.196 27.288 104.168 26.448 102.776 24.768V27H97.4123V0.287998H103.028V9.684C104.444 8.124 106.388 7.344 108.86 7.344ZM107.888 22.68C109.328 22.68 110.504 22.2 111.416 21.24C112.352 20.256 112.82 18.948 112.82 17.316C112.82 15.684 112.352 14.388 111.416 13.428C110.504 12.444 109.328 11.952 107.888 11.952C106.448 11.952 105.26 12.444 104.324 13.428C103.412 14.388 102.956 15.684 102.956 17.316C102.956 18.948 103.412 20.256 104.324 21.24C105.26 22.2 106.448 22.68 107.888 22.68ZM131.484 27.288C129.444 27.288 127.608 26.868 125.976 26.028C124.368 25.164 123.108 23.976 122.196 22.464C121.284 20.952 120.828 19.236 120.828 17.316C120.828 15.396 121.284 13.68 122.196 12.168C123.108 10.656 124.368 9.48 125.976 8.64C127.608 7.776 129.444 7.344 131.484 7.344C133.524 7.344 135.348 7.776 136.956 8.64C138.564 9.48 139.824 10.656 140.736 12.168C141.648 13.68 142.104 15.396 142.104 17.316C142.104 19.236 141.648 20.952 140.736 22.464C139.824 23.976 138.564 25.164 136.956 26.028C135.348 26.868 133.524 27.288 131.484 27.288ZM131.484 22.68C132.924 22.68 134.1 22.2 135.012 21.24C135.948 20.256 136.416 18.948 136.416 17.316C136.416 15.684 135.948 14.388 135.012 13.428C134.1 12.444 132.924 11.952 131.484 11.952C130.044 11.952 128.856 12.444 127.92 13.428C126.984 14.388 126.516 15.684 126.516 17.316C126.516 18.948 126.984 20.256 127.92 21.24C128.856 22.2 130.044 22.68 131.484 22.68ZM155.074 27.288C153.034 27.288 151.198 26.868 149.566 26.028C147.958 25.164 146.698 23.976 145.786 22.464C144.874 20.952 144.418 19.236 144.418 17.316C144.418 15.396 144.874 13.68 145.786 12.168C146.698 10.656 147.958 9.48 149.566 8.64C151.198 7.776 153.034 7.344 155.074 7.344C157.114 7.344 158.938 7.776 160.546 8.64C162.154 9.48 163.414 10.656 164.326 12.168C165.238 13.68 165.694 15.396 165.694 17.316C165.694 19.236 165.238 20.952 164.326 22.464C163.414 23.976 162.154 25.164 160.546 26.028C158.938 26.868 157.114 27.288 155.074 27.288ZM155.074 22.68C156.514 22.68 157.69 22.2 158.602 21.24C159.538 20.256 160.006 18.948 160.006 17.316C160.006 15.684 159.538 14.388 158.602 13.428C157.69 12.444 156.514 11.952 155.074 11.952C153.634 11.952 152.446 12.444 151.51 13.428C150.574 14.388 150.106 15.684 150.106 17.316C150.106 18.948 150.574 20.256 151.51 21.24C152.446 22.2 153.634 22.68 155.074 22.68ZM177.763 19.404L175.063 22.068V27H169.447V0.287998H175.063V15.408L183.271 7.632H189.967L181.903 15.84L190.687 27H183.883L177.763 19.404Z" fill="#266EDA"/>
</svg>
